<svg width="162" height="107" viewBox="0 0 162 107" fill="none" xmlns="http://www.w3.org/2000/svg">
<path d="M117.822 7.14462C114.898 3.82703 110.842 2 106.4 2C100.154 2 96.1997 5.73047 93.9823 8.86004C93.407 9.67213 92.9175 10.4864 92.5066 11.2527C92.0957 10.4864 91.6064 9.67213 91.031 8.86004C88.8136 5.73047 84.8591 2 78.6129 2C74.1718 2 70.1156 3.82714 67.1916 7.14474C64.4027 10.3095 62.8666 14.548 62.8666 19.0795C62.8666 24.0121 64.7924 28.5999 68.9272 33.5174C72.6226 37.9124 77.9389 42.4427 84.0951 47.6887C86.3891 49.6435 88.7613 51.6651 91.2869 53.8747L91.3627 53.9412C91.6901 54.2279 92.0984 54.3711 92.5066 54.3711C92.9149 54.3711 93.3231 54.2278 93.6506 53.9412L93.7264 53.8747C96.2519 51.6651 98.6242 49.6436 100.918 47.6884C107.074 42.4429 112.391 37.9126 116.086 33.5174C120.221 28.5998 122.147 24.0121 122.147 19.0795C122.147 14.548 120.611 10.3095 117.822 7.14462ZM98.6654 45.0449C96.6878 46.73 94.6526 48.4643 92.5066 50.3299C90.3607 48.4645 88.3254 46.7301 86.3475 45.0447C74.2995 34.778 66.3401 27.9954 66.3401 19.0795C66.3401 15.3942 67.5679 11.9712 69.7975 9.44126C72.0527 6.88261 75.1833 5.47344 78.6129 5.47344C83.3749 5.47344 86.4531 8.4071 88.1968 10.8681C89.7609 13.0754 90.577 15.3005 90.8554 16.1546C91.0882 16.8696 91.7548 17.3534 92.5066 17.3534C93.2585 17.3534 93.9251 16.8696 94.1579 16.1546C94.4362 15.3005 95.2524 13.0754 96.8165 10.868C98.5601 8.4071 101.638 5.47344 106.4 5.47344C109.83 5.47344 112.961 6.88261 115.216 9.44126C117.445 11.9712 118.673 15.3942 118.673 19.0795C118.673 27.9954 110.714 34.778 98.6654 45.0449Z" fill="white"/>
<path d="M89.9549 7.14462C87.0311 3.82703 82.9749 2 78.5337 2C72.2876 2 68.3331 5.73047 66.1156 8.86004C65.5403 9.67213 65.0509 10.4864 64.64 11.2527C64.2291 10.4864 63.7398 9.67213 63.1644 8.86004C60.9469 5.73047 56.9924 2 50.7463 2C46.3051 2 42.2489 3.82714 39.325 7.14474C36.5361 10.3095 35 14.548 35 19.0795C35 24.0121 36.9258 28.5999 41.0606 33.5174C44.756 37.9124 50.0723 42.4427 56.2285 47.6887C58.5225 49.6435 60.8947 51.6651 63.4202 53.8747L63.4961 53.9412C63.8235 54.2279 64.2318 54.3711 64.64 54.3711C65.0482 54.3711 65.4565 54.2278 65.7839 53.9412L65.8598 53.8747C68.3853 51.6651 70.7575 49.6436 73.0519 47.6884C79.2077 42.4429 84.524 37.9126 88.2194 33.5174C92.3542 28.5998 94.28 24.0121 94.28 19.0795C94.28 14.548 92.7439 10.3095 89.9549 7.14462ZM70.7988 45.0449C68.8212 46.73 66.786 48.4643 64.64 50.3299C62.4941 48.4645 60.4588 46.7301 58.4809 45.0447C46.4328 34.778 38.4734 27.9954 38.4734 19.0795C38.4734 15.3942 39.7013 11.9712 41.9309 9.44126C44.1861 6.88261 47.3167 5.47344 50.7463 5.47344C55.5082 5.47344 58.5865 8.4071 60.3302 10.8681C61.8942 13.0754 62.7104 15.3005 62.9887 16.1546C63.2216 16.8696 63.8881 17.3534 64.64 17.3534C65.3919 17.3534 66.0584 16.8696 66.2913 16.1546C66.5696 15.3005 67.3858 13.0754 68.9498 10.868C70.6935 8.4071 73.7718 5.47344 78.5337 5.47344C81.9633 5.47344 85.0939 6.88261 87.349 9.44126C89.5787 11.9712 90.8066 15.3942 90.8066 19.0795C90.8066 27.9954 82.8472 34.778 70.7988 45.0449Z" fill="white"/>
<path d="M93 17.0399C93 26.7342 86.5855 33.112 78.6315 40C70.1058 34.003 64.5195 25.9688 65.0326 17.0399C65.5458 8.11097 73.7564 2.75361 79.4012 3.00872C85.046 3.26383 92.4868 9.64164 93 17.0399Z" stroke="white" stroke-width="5"/>
<path d="M82.7444 11.5019C82.1668 10.9242 81.3987 10.6063 80.582 10.6063C79.8355 10.6063 79.1301 10.8719 78.5733 11.3584C78.0165 10.8719 77.3109 10.6063 76.5645 10.6063C75.7477 10.6063 74.9798 10.9243 74.4024 11.5019C73.8247 12.0793 73.5067 12.8473 73.5067 13.664C73.5067 14.4808 73.8248 15.2488 74.4024 15.8263L78.4197 19.8438C78.4604 19.8845 78.5158 19.9074 78.5733 19.9074C78.631 19.9074 78.6861 19.8845 78.7268 19.8438L82.7444 15.8263C83.322 15.2488 83.64 14.4808 83.64 13.664C83.64 12.8472 83.322 12.0792 82.7444 11.5019Z" fill="white"/>
<path d="M21.01 67.1944C21.23 65.141 22.6783 64.1144 25.355 64.1144C26.785 64.1144 27.8483 64.2244 28.545 64.4444C29.2417 64.6644 29.7183 65.0494 29.975 65.5994C30.2683 66.1494 30.4333 66.6444 30.47 67.0844C30.5433 67.4877 30.58 68.111 30.58 68.9544V88.2044C30.58 89.0477 30.5433 89.6894 30.47 90.1294C30.4333 90.5327 30.2867 91.0094 30.03 91.5594C29.5167 92.5127 28.2517 92.9894 26.235 92.9894C24.255 92.9894 22.9167 92.751 22.22 92.2744C21.56 91.761 21.175 91.0277 21.065 90.0744C19.7083 92.0177 17.435 92.9894 14.245 92.9894C11.0917 92.9894 8.15833 91.541 5.445 88.6444C2.73167 85.7477 1.375 82.3927 1.375 78.5794C1.375 74.7294 2.73167 71.3744 5.445 68.5144C8.195 65.6177 11.2017 64.1694 14.465 64.1694C15.7117 64.1694 16.8483 64.3894 17.875 64.8294C18.9017 65.2694 19.6167 65.691 20.02 66.0944C20.4233 66.461 20.7533 66.8277 21.01 67.1944ZM11 78.6344C11 79.8444 11.4767 80.9444 12.43 81.9344C13.3833 82.8877 14.5383 83.3644 15.895 83.3644C17.2517 83.3644 18.37 82.8694 19.25 81.8794C20.1667 80.8894 20.625 79.8077 20.625 78.6344C20.625 77.4244 20.185 76.306 19.305 75.2794C18.4617 74.2527 17.3067 73.7394 15.84 73.7394C14.41 73.7394 13.2367 74.2527 12.32 75.2794C11.44 76.306 11 77.4244 11 78.6344ZM53.3337 89.4694C51.9403 91.3027 49.722 92.2194 46.6787 92.2194C43.6353 92.2194 40.7753 90.826 38.0987 88.0394C35.4587 85.216 34.1387 81.9344 34.1387 78.1944C34.1387 74.4544 35.477 71.1727 38.1537 68.3494C40.8303 65.526 43.7637 64.1144 46.9537 64.1144C48.2003 64.1144 49.337 64.3527 50.3637 64.8294C51.3903 65.2694 52.087 65.691 52.4537 66.0944C52.857 66.461 53.1687 66.8094 53.3887 67.1394C53.4987 66.1127 53.8653 65.3427 54.4887 64.8294C55.1487 64.2794 56.1937 64.0044 57.6237 64.0044C59.0537 64.0044 60.0987 64.1144 60.7587 64.3344C61.4187 64.5544 61.877 64.9394 62.1337 65.4894C62.427 66.0027 62.592 66.461 62.6287 66.8644C62.702 67.2677 62.7387 67.891 62.7387 68.7344V91.5044C62.7387 95.721 61.272 99.1127 58.3387 101.679C55.4053 104.283 52.1053 105.584 48.4387 105.584C45.652 105.584 42.9937 104.906 40.4637 103.549C37.9337 102.193 36.6687 100.964 36.6687 99.8644C36.6687 98.4344 37.2187 97.1694 38.3187 96.0694C39.0153 95.2994 39.547 94.7677 39.9137 94.4744C40.317 94.181 40.7753 94.0344 41.2887 94.0344C41.802 94.0344 42.3337 94.2544 42.8837 94.6944C44.6437 96.051 46.5503 96.7294 48.6037 96.7294C49.997 96.7294 51.1337 96.1794 52.0137 95.0794C52.8937 93.9794 53.3337 92.6594 53.3337 91.1194V89.4694ZM43.5437 78.2494C43.5437 79.4227 44.002 80.486 44.9187 81.4394C45.872 82.3927 47.0087 82.8694 48.3287 82.8694C49.6853 82.8694 50.8037 82.3927 51.6837 81.4394C52.5637 80.4494 53.0037 79.386 53.0037 78.2494C53.0037 77.076 52.582 75.9944 51.7387 75.0044C50.8953 73.9777 49.7587 73.4644 48.3287 73.4644C46.8987 73.4644 45.7437 73.9594 44.8637 74.9494C43.9837 75.9394 43.5437 77.0394 43.5437 78.2494ZM85.9465 67.1944C86.1665 65.141 87.6149 64.1144 90.2915 64.1144C91.7215 64.1144 92.7849 64.2244 93.4815 64.4444C94.1782 64.6644 94.6549 65.0494 94.9115 65.5994C95.2049 66.1494 95.3699 66.6444 95.4065 67.0844C95.4799 67.4877 95.5165 68.111 95.5165 68.9544V88.2044C95.5165 89.0477 95.4799 89.6894 95.4065 90.1294C95.3699 90.5327 95.2232 91.0094 94.9665 91.5594C94.4532 92.5127 93.1882 92.9894 91.1715 92.9894C89.1915 92.9894 87.8532 92.751 87.1565 92.2744C86.4965 91.761 86.1115 91.0277 86.0015 90.0744C84.6449 92.0177 82.3715 92.9894 79.1815 92.9894C76.0282 92.9894 73.0949 91.541 70.3815 88.6444C67.6682 85.7477 66.3115 82.3927 66.3115 78.5794C66.3115 74.7294 67.6682 71.3744 70.3815 68.5144C73.1315 65.6177 76.1382 64.1694 79.4015 64.1694C80.6482 64.1694 81.7849 64.3894 82.8115 64.8294C83.8382 65.2694 84.5532 65.691 84.9565 66.0944C85.3599 66.461 85.6899 66.8277 85.9465 67.1944ZM75.9365 78.6344C75.9365 79.8444 76.4132 80.9444 77.3665 81.9344C78.3199 82.8877 79.4749 83.3644 80.8315 83.3644C82.1882 83.3644 83.3065 82.8694 84.1865 81.8794C85.1032 80.8894 85.5615 79.8077 85.5615 78.6344C85.5615 77.4244 85.1215 76.306 84.2415 75.2794C83.3982 74.2527 82.2432 73.7394 80.7765 73.7394C79.3465 73.7394 78.1732 74.2527 77.2565 75.2794C76.3765 76.306 75.9365 77.4244 75.9365 78.6344ZM99.9002 100.964V68.8444C99.9002 68.001 99.9185 67.3777 99.9552 66.9744C100.029 66.571 100.194 66.1127 100.45 65.5994C100.964 64.6094 102.192 64.1144 104.135 64.1144C106.079 64.1144 107.38 64.371 108.04 64.8844C108.737 65.361 109.14 66.076 109.25 67.0294C110.644 65.1227 112.825 64.1694 115.795 64.1694C118.802 64.1694 121.644 65.581 124.32 68.4044C126.997 71.2277 128.335 74.5094 128.335 78.2494C128.335 81.9894 126.997 85.271 124.32 88.0944C121.68 90.9177 118.857 92.3294 115.85 92.3294C112.844 92.3294 110.662 91.486 109.305 89.7994V100.909C109.305 101.753 109.269 102.376 109.195 102.779C109.159 103.183 108.994 103.641 108.7 104.154C108.444 104.704 107.985 105.089 107.325 105.309C106.665 105.529 105.767 105.639 104.63 105.639C103.494 105.639 102.577 105.529 101.88 105.309C101.22 105.089 100.744 104.723 100.45 104.209C100.194 103.696 100.029 103.238 99.9552 102.834C99.9185 102.431 99.9002 101.808 99.9002 100.964ZM110.79 75.0594C109.947 76.0494 109.525 77.131 109.525 78.3044C109.525 79.4777 109.947 80.5594 110.79 81.5494C111.67 82.5027 112.77 82.9794 114.09 82.9794C115.447 82.9794 116.584 82.5027 117.5 81.5494C118.454 80.596 118.93 79.5144 118.93 78.3044C118.93 77.0944 118.49 76.0127 117.61 75.0594C116.73 74.0694 115.575 73.5744 114.145 73.5744C112.752 73.5744 111.634 74.0694 110.79 75.0594ZM131.912 100.964V68.8444C131.912 68.001 131.93 67.3777 131.967 66.9744C132.04 66.571 132.205 66.1127 132.462 65.5994C132.975 64.6094 134.204 64.1144 136.147 64.1144C138.09 64.1144 139.392 64.371 140.052 64.8844C140.749 65.361 141.152 66.076 141.262 67.0294C142.655 65.1227 144.837 64.1694 147.807 64.1694C150.814 64.1694 153.655 65.581 156.332 68.4044C159.009 71.2277 160.347 74.5094 160.347 78.2494C160.347 81.9894 159.009 85.271 156.332 88.0944C153.692 90.9177 150.869 92.3294 147.862 92.3294C144.855 92.3294 142.674 91.486 141.317 89.7994V100.909C141.317 101.753 141.28 102.376 141.207 102.779C141.17 103.183 141.005 103.641 140.712 104.154C140.455 104.704 139.997 105.089 139.337 105.309C138.677 105.529 137.779 105.639 136.642 105.639C135.505 105.639 134.589 105.529 133.892 105.309C133.232 105.089 132.755 104.723 132.462 104.209C132.205 103.696 132.04 103.238 131.967 102.834C131.93 102.431 131.912 101.808 131.912 100.964ZM142.802 75.0594C141.959 76.0494 141.537 77.131 141.537 78.3044C141.537 79.4777 141.959 80.5594 142.802 81.5494C143.682 82.5027 144.782 82.9794 146.102 82.9794C147.459 82.9794 148.595 82.5027 149.512 81.5494C150.465 80.596 150.942 79.5144 150.942 78.3044C150.942 77.0944 150.502 76.0127 149.622 75.0594C148.742 74.0694 147.587 73.5744 146.157 73.5744C144.764 73.5744 143.645 74.0694 142.802 75.0594Z" fill="white"/>
</svg>
